<?xml version="1.0" standalone="no"?>
<!DOCTYPE svg PUBLIC "-//W3C//DTD SVG 1.1//EN" "http://www.w3.org/Graphics/SVG/1.1/DTD/svg11.dtd" >
<svg xmlns="http://www.w3.org/2000/svg">
<metadata></metadata>
<defs>
<font id="lotregular" horiz-adv-x="1552" >
<font-face units-per-em="2048" ascent="1536" descent="-512" />
<missing-glyph horiz-adv-x="821" />
<glyph horiz-adv-x="2048" />
<glyph horiz-adv-x="2048" />
<glyph unicode="&#xd;" horiz-adv-x="2048" />
<glyph unicode=" "  horiz-adv-x="821" />
<glyph unicode="&#x09;" horiz-adv-x="821" />
<glyph unicode="&#xa0;" horiz-adv-x="821" />
<glyph unicode="!" horiz-adv-x="874" d="M57 0v350h742v-350h-742zM57 397v1039h742v-1039h-742z" />
<glyph unicode="(" horiz-adv-x="835" d="M55 666q1 439 226 833h518q-142 -287 -191.5 -554t-3.5 -545t195 -566h-518q-227 393 -226 832z" />
<glyph unicode=")" horiz-adv-x="927" d="M53 -166q149 288 195 566t-3.5 545t-191.5 554h518q225 -394 226 -833t-226 -832h-518z" />
<glyph unicode="," horiz-adv-x="589" d="M47 186q0 95 67.5 161.5t161.5 66.5q100 0 169 -66.5t69 -161.5q0 -72 -51 -133l-205 -246l-37 15l-14 160q-70 22 -115 79t-45 125z" />
<glyph unicode="." horiz-adv-x="557" d="M43 186q0 95 67.5 161.5t161.5 66.5q100 0 169 -66.5t69 -161.5q0 -87 -69.5 -151t-168.5 -64q-93 0 -161 64t-68 151z" />
<glyph unicode="0" horiz-adv-x="1579" d="M20 719q0 155 60.5 296.5t163 244t244 163t296.5 60.5t296.5 -60.5t244 -163t163 -244t60.5 -296.5t-60.5 -296.5t-163 -244t-244 -163t-296.5 -60.5t-296.5 60.5t-244 163t-163 244t-60.5 296.5z" />
<glyph unicode="1" horiz-adv-x="993" d="M2 748l240 686h690v-1434h-746v748h-184z" />
<glyph unicode="2" horiz-adv-x="1521" d="M49 0v346q0 134 71.5 231.5t201.5 127.5v14h-236v717h1061q145 0 250.5 -109t105.5 -250q0 -137 -86 -225.5t-239 -118.5v-14h282v-719h-1411z" />
<glyph unicode="3" horiz-adv-x="1357" d="M57 0v483h291v62h-291v344h291v61h-291v484h746q95 0 180 -31.5t145.5 -83t99.5 -120.5t49 -141.5t-13.5 -149t-81.5 -140.5q80 -59 119 -141t36 -166t-43.5 -167.5t-110 -148t-175 -105t-228.5 -40.5h-723z" />
<glyph unicode="4" horiz-adv-x="1523" d="M31 1053v381h1433v-1434h-745v338q-141 5 -268.5 64t-219.5 154t-146 225t-54 272z" />
<glyph unicode="5" horiz-adv-x="1497" d="M61 0v655h263v62h-263v717h1375v-719h-283v-13q154 -31 240 -119.5t86 -224.5q0 -140 -106 -249t-251 -109h-1061z" />
<glyph unicode="6" horiz-adv-x="1574" d="M27 705q0 110 31.5 220.5t91.5 194.5l225 316h768q-68 -96 -177 -246.5t-143 -198.5l49 -35l197 277q122 -39 214.5 -103.5t147 -145t81 -168.5t26.5 -183q0 -151 -51.5 -278.5t-146 -219t-234.5 -143.5t-311 -53q-146 -1 -270 37.5t-215 108.5t-155 166t-96 211t-32 243 z" />
<glyph unicode="7" horiz-adv-x="1458" d="M39 0l264 748h-264v686h1434q-89 -252 -504 -1434h-930z" />
<glyph unicode="8" horiz-adv-x="1435" d="M23.5 449q-2.5 90 39.5 178t127 151q-62 69 -85.5 150.5t-9.5 159t59.5 151t114 128t162 87.5t196.5 33h178q103 0 197 -33t163.5 -87.5t116.5 -128t61.5 -151t-8 -159t-84.5 -150.5q85 -63 127 -151t39.5 -178t-46.5 -179.5t-119 -159t-188.5 -112.5t-246.5 -43h-194 q-132 0 -245.5 43t-188.5 112.5t-119 159t-46.5 179.5z" />
<glyph unicode="9" horiz-adv-x="1574" d="M31 799q0 151 51.5 278.5t146 219t234.5 143.5t311 53q146 1 270 -37.5t215 -108.5t155 -166t96 -211t32 -243q0 -110 -31.5 -221t-91.5 -195l-225 -315h-768q68 97 178.5 249.5t140.5 194.5l-49 35l-196 -276q-122 39 -214.5 103.5t-147 145t-81 168.5t-26.5 183z" />
<glyph unicode=":" horiz-adv-x="655" d="M90 186q0 95 67.5 161.5t161.5 66.5q100 0 169 -66.5t69 -161.5q0 -87 -69.5 -151t-168.5 -64q-93 0 -161 64t-68 151zM90 813q0 95 67.5 161t161.5 66q100 0 169 -66t69 -161q0 -87 -69.5 -151t-168.5 -64q-93 0 -161 64t-68 151z" />
<glyph unicode=";" horiz-adv-x="655" d="M90 186q0 95 67.5 161.5t161.5 66.5q100 0 169 -66.5t69 -161.5q0 -72 -51 -133l-205 -246l-37 15l-14 160q-70 22 -115 79t-45 125zM90 813q0 95 67.5 161t161.5 66q100 0 169 -66t69 -161q0 -87 -69.5 -151t-168.5 -64q-93 0 -161 64t-68 151z" />
<glyph unicode="?" horiz-adv-x="1398" d="M39 786v265q0 105 57.5 191t153.5 140t215.5 83t247.5 30q177 2 330.5 -51t238.5 -154q82 -99 90 -217q14 -123 -50 -229t-185 -131q-28 -5 -51 -14t-40 -19t-30 -27t-22 -29.5t-15 -36t-9 -38.5t-5 -44t-2.5 -45t-1 -50t-0.5 -50h-699q1 48 1.5 75.5t4 73t10 74t18.5 64 t29 57.5t42.5 40.5t58.5 25.5v16h-387zM262 0v317h699v-317h-699z" />
<glyph unicode="A" horiz-adv-x="1689" d="M-57 0l905 1534l905 -1534h-1810z" />
<glyph unicode="B" horiz-adv-x="1366" d="M59 0v1434h746q95 0 180 -31.5t145.5 -83t99.5 -120.5t49 -141q3 -22 3 -44q0 -52 -16 -106q-24 -76 -82 -140q80 -59 119 -141q36 -76 36 -154v-12q-3 -84 -43.5 -167.5t-110 -148t-175 -105t-228.5 -40.5h-723z" />
<glyph unicode="C" horiz-adv-x="1310" d="M48 524q-26 97 -26 194t26 194q52 194 196 339q146 145 340 197q97 26 194 26t194 -26q194 -52 339 -197l-535 -532l535 -535q-145 -144 -339 -196q-97 -26 -194 -26q-96 0 -194 26q-194 52 -339 197t-197 339z" />
<glyph unicode="D" horiz-adv-x="1531" d="M61 -2v1436h717q145 0 278 -57t229 -153.5t153 -229.5t57 -279q0 -145 -57 -278t-153 -229t-229 -153t-278 -57h-717z" />
<glyph unicode="E" horiz-adv-x="1306" d="M59 2v1434h1188v-484h-297v-61h297v-344h-297v-62h297v-483h-1188z" />
<glyph unicode="F" horiz-adv-x="1310" d="M63 0v1434h1188v-484h-297v-61h297v-461h-321v-428h-867z" />
<glyph unicode="G" horiz-adv-x="1568" d="M27 719q0 185 83.5 346.5t229 267.5t324.5 135q58 9 117 9q69 0 139 -13q129 -23 243 -88l-379 -657h758q0 -155 -60 -295.5t-161 -241.5t-241.5 -161t-295.5 -60t-295 60t-241.5 161t-161 241.5t-59.5 295.5z" />
<glyph unicode="H" horiz-adv-x="1558" d="M61 2v1434h687v-529h61v529h686v-1434h-686v528h-61v-528h-687z" />
<glyph unicode="I" horiz-adv-x="866" d="M59 0v1434h746v-1434h-746z" />
<glyph unicode="J" horiz-adv-x="1540" d="M51 594v301h678v-256h62v797h690v-842q0 -154 -61.5 -279t-162 -202t-229 -118.5t-262.5 -41.5t-262.5 41.5t-229 118.5t-162 202t-61.5 279z" />
<glyph unicode="K" horiz-adv-x="1472" d="M61 -2v1436h1405l-536 -717l536 -719h-1405z" />
<glyph unicode="L" horiz-adv-x="1230" d="M61 0v1434h717v-717h398v-717h-1115z" />
<glyph unicode="M" d="M57 1489l717 -543l717 543l4 -1489h-1434z" />
<glyph unicode="N" d="M61 0v1468l721 -563v529h713v-1434h-1434z" />
<glyph unicode="O" horiz-adv-x="1579" d="M20 719q0 155 60.5 296.5t163 244t244 163t296.5 60.5t296.5 -60.5t244 -163t163 -244t60.5 -296.5t-60.5 -296.5t-163 -244t-244 -163t-296.5 -60.5t-296.5 60.5t-244 163t-163 244t-60.5 296.5z" />
<glyph unicode="P" horiz-adv-x="1359" d="M61 0v1434h687q159 0 293.5 -77.5t213 -211.5t78.5 -293q0 -156 -77.5 -289.5t-211 -212t-290.5 -78.5v-272h-693z" />
<glyph unicode="Q" horiz-adv-x="1564" d="M25 733q0 154 59.5 294t160.5 241t241 161t294 60t294 -60t241 -161t161 -241t60 -294q0 -273 -176 -485l-205 201l-43 -43l424 -416v-13h-756q-153 0 -293 60.5t-241 162t-161 241t-60 292.5z" />
<glyph unicode="R" horiz-adv-x="1355" d="M61 -2v1436h689q158 0 292.5 -78t212.5 -212.5t78 -293.5q0 -137 -59.5 -256.5t-163.5 -200.5l211 -395h-1260z" />
<glyph unicode="S" horiz-adv-x="1476" d="M10 1077q0 140 105.5 248.5t251.5 108.5h1075v-721h-250v-15q99 -22 166 -84q66 -60 90 -138q17 -55 17 -113q0 -23 -3 -49q-10 -84 -51.5 -154.5t-119.5 -116t-177 -45.5h-1067v715h289v14q-153 30 -239.5 121t-86.5 229z" />
<glyph unicode="T" horiz-adv-x="1376" d="M41 715v719h1292v-719h-278v-717h-717v717h-297z" />
<glyph unicode="U" horiz-adv-x="1540" d="M53 688v750h1434v-750q0 -145 -57 -278t-153 -229t-229 -153t-278 -57t-278 57t-229 153t-153 229t-57 278z" />
<glyph unicode="V" horiz-adv-x="1716" d="M-47 1436h1812l-905 -1536z" />
<glyph unicode="W" horiz-adv-x="2453" d="M-53 1438h2560l-903 -1530q-80 135 -251 420t-261 438l-45 -43l145 -246l-342 -569z" />
<glyph unicode="X" horiz-adv-x="1531" d="M4 2l402 717l-402 717h1520l-402 -717l402 -717h-1520z" />
<glyph unicode="Y" horiz-adv-x="1486" d="M-16 1434h1519l-401 -717v-717h-717v717z" />
<glyph unicode="Z" horiz-adv-x="1548" d="M57 -2l265 747h-265v689h1434l-264 -750h264v-686h-1434z" />
<glyph unicode="a" horiz-adv-x="1689" d="M-57 0l905 1534l905 -1534h-1810z" />
<glyph unicode="b" horiz-adv-x="1372" d="M59 0v1434h746q95 0 180 -31.5t145.5 -83t99.5 -120.5t49 -141q3 -22 3 -44q0 -52 -16 -106q-24 -76 -82 -140q80 -59 119 -141q36 -76 36 -154v-12q-3 -84 -43.5 -167.5t-110 -148t-175 -105t-228.5 -40.5h-723z" />
<glyph unicode="c" horiz-adv-x="1318" d="M48 524q-26 97 -26 194t26 194q52 194 196 339q146 145 340 197q97 26 194 26t194 -26q194 -52 339 -197l-535 -532l535 -535q-145 -144 -339 -196q-97 -26 -194 -26q-96 0 -194 26q-194 52 -339 197t-197 339z" />
<glyph unicode="d" horiz-adv-x="1531" d="M61 -2v1436h717q145 0 278 -57t229 -153.5t153 -229.5t57 -279q0 -145 -57 -278t-153 -229t-229 -153t-278 -57h-717z" />
<glyph unicode="e" horiz-adv-x="1306" d="M59 2v1434h1188v-484h-297v-61h297v-344h-297v-62h297v-483h-1188z" />
<glyph unicode="f" horiz-adv-x="1310" d="M63 0v1434h1188v-484h-297v-61h297v-461h-321v-428h-867z" />
<glyph unicode="g" horiz-adv-x="1568" d="M27 719q0 185 83.5 346.5t229 267.5t324.5 135q58 9 117 9q69 0 139 -13q129 -23 243 -88l-379 -657h758q0 -155 -60 -295.5t-161 -241.5t-241.5 -161t-295.5 -60t-295 60t-241.5 161t-161 241.5t-59.5 295.5z" />
<glyph unicode="h" horiz-adv-x="1558" d="M61 2v1434h687v-529h61v529h686v-1434h-686v528h-61v-528h-687z" />
<glyph unicode="i" horiz-adv-x="866" d="M59 0v1434h746v-1434h-746z" />
<glyph unicode="j" horiz-adv-x="1540" d="M51 594v301h678v-256h62v797h690v-842q0 -154 -61.5 -279t-162 -202t-229 -118.5t-262.5 -41.5t-262.5 41.5t-229 118.5t-162 202t-61.5 279z" />
<glyph unicode="k" horiz-adv-x="1472" d="M61 -2v1436h1405l-536 -717l536 -719h-1405z" />
<glyph unicode="l" horiz-adv-x="1230" d="M61 0v1434h717v-717h398v-717h-1115z" />
<glyph unicode="m" d="M57 1489l717 -543l717 543l4 -1489h-1434z" />
<glyph unicode="n" d="M61 0v1468l721 -563v529h713v-1434h-1434z" />
<glyph unicode="o" horiz-adv-x="1579" d="M20 719q0 155 60.5 296.5t163 244t244 163t296.5 60.5t296.5 -60.5t244 -163t163 -244t60.5 -296.5t-60.5 -296.5t-163 -244t-244 -163t-296.5 -60.5t-296.5 60.5t-244 163t-163 244t-60.5 296.5z" />
<glyph unicode="p" horiz-adv-x="1359" d="M61 0v1434h687q159 0 293.5 -77.5t213 -211.5t78.5 -293q0 -156 -77.5 -289.5t-211 -212t-290.5 -78.5v-272h-693z" />
<glyph unicode="q" horiz-adv-x="1564" d="M25 733q0 154 59.5 294t160.5 241t241 161t294 60t294 -60t241 -161t161 -241t60 -294q0 -273 -176 -485l-205 201l-43 -43l424 -416v-13h-756q-153 0 -293 60.5t-241 162t-161 241t-60 292.5z" />
<glyph unicode="r" horiz-adv-x="1355" d="M61 -2v1436h689q158 0 292.5 -78t212.5 -212.5t78 -293.5q0 -137 -59.5 -256.5t-163.5 -200.5l211 -395h-1260z" />
<glyph unicode="s" horiz-adv-x="1476" d="M10 1077q0 140 105.5 248.5t251.5 108.5h1075v-721h-250v-15q99 -22 166 -84q66 -60 90 -138q17 -55 17 -113q0 -23 -3 -49q-10 -84 -51.5 -154.5t-119.5 -116t-177 -45.5h-1067v715h289v14q-153 30 -239.5 121t-86.5 229z" />
<glyph unicode="t" horiz-adv-x="1376" d="M41 715v719h1292v-719h-278v-717h-717v717h-297z" />
<glyph unicode="u" horiz-adv-x="1540" d="M53 688v750h1434v-750q0 -145 -57 -278t-153 -229t-229 -153t-278 -57t-278 57t-229 153t-153 229t-57 278z" />
<glyph unicode="v" horiz-adv-x="1716" d="M-47 1436h1812l-905 -1536z" />
<glyph unicode="w" horiz-adv-x="2453" d="M-53 1438h2560l-903 -1530q-80 135 -251 420t-261 438l-45 -43l145 -246l-342 -569z" />
<glyph unicode="x" horiz-adv-x="1531" d="M4 2l402 717l-402 717h1520l-402 -717l402 -717h-1520z" />
<glyph unicode="y" horiz-adv-x="1486" d="M-16 1434h1519l-401 -717v-717h-717v717z" />
<glyph unicode="z" horiz-adv-x="1548" d="M57 -2l265 747h-265v689h1434l-264 -750h264v-686h-1434z" />
<glyph unicode="&#x2000;" horiz-adv-x="767" />
<glyph unicode="&#x2001;" horiz-adv-x="1534" />
<glyph unicode="&#x2002;" horiz-adv-x="767" />
<glyph unicode="&#x2003;" horiz-adv-x="1534" />
<glyph unicode="&#x2004;" horiz-adv-x="511" />
<glyph unicode="&#x2005;" horiz-adv-x="383" />
<glyph unicode="&#x2006;" horiz-adv-x="255" />
<glyph unicode="&#x2007;" horiz-adv-x="255" />
<glyph unicode="&#x2008;" horiz-adv-x="191" />
<glyph unicode="&#x2009;" horiz-adv-x="306" />
<glyph unicode="&#x200a;" horiz-adv-x="85" />
<glyph unicode="&#x2018;" horiz-adv-x="649" d="M94 1090q0 72 51 133l205 245l37 -14l14 -160q70 -22 115 -79t45 -125q0 -95 -67.5 -161.5t-161.5 -66.5q-100 0 -169 66.5t-69 161.5z" />
<glyph unicode="&#x2019;" horiz-adv-x="665" d="M94 1219q0 95 68 161t162 66q100 0 168.5 -66t68.5 -161q0 -73 -51 -134l-205 -245l-37 14l-14 160q-70 22 -115 79.5t-45 125.5z" />
<glyph unicode="&#x201a;" horiz-adv-x="681" d="M94 186q0 95 68 161.5t162 66.5q100 0 168.5 -66.5t68.5 -161.5q0 -72 -51 -133l-205 -246l-37 15l-14 160q-70 22 -115 79t-45 125z" />
<glyph unicode="&#x201c;" horiz-adv-x="1191" d="M92 1067q0 72 51 133l205 246l37 -14l14 -160q70 -22 115 -79.5t45 -125.5q0 -95 -67.5 -161t-161.5 -66q-100 0 -169 66t-69 161zM614 1067q0 71 52 133l204 246l37 -14l15 -160q69 -22 114 -79t45 -126q0 -95 -67.5 -161t-161.5 -66q-100 0 -169 66t-69 161z" />
<glyph unicode="&#x201d;" horiz-adv-x="1165" d="M94 1219q0 95 68 161t162 66q100 0 168.5 -66t68.5 -161q0 -73 -51 -134l-205 -245l-37 14l-14 160q-70 22 -115 79.5t-45 125.5zM616 1219q0 95 68 161t162 66q100 0 168.5 -66t68.5 -161q0 -73 -51 -134l-205 -245l-36 14l-15 160q-70 22 -115 79.5t-45 125.5z" />
<glyph unicode="&#x201e;" horiz-adv-x="1269" d="M106 186q0 95 68 161.5t162 66.5q100 0 168.5 -66.5t68.5 -161.5q0 -72 -51 -133l-205 -246l-36 15l-15 160q-70 22 -115 79t-45 125zM645 186q0 95 67.5 161.5t161.5 66.5q100 0 169 -66.5t69 -161.5q0 -72 -51 -133l-205 -246l-37 15l-14 160q-70 22 -115 79t-45 125z " />
<glyph unicode="&#x2026;" horiz-adv-x="1701" d="M43 186q0 95 67.5 161.5t161.5 66.5q100 0 169 -66.5t69 -161.5q0 -87 -69.5 -151t-168.5 -64q-93 0 -161 64t-68 151zM600 186q0 95 67.5 161.5t161.5 66.5q100 0 169 -66.5t69 -161.5q0 -87 -69.5 -151t-168.5 -64q-93 0 -161 64t-68 151zM1157 186q0 95 67.5 161.5 t161.5 66.5q100 0 169 -66.5t69 -161.5q0 -87 -69.5 -151t-168.5 -64q-93 0 -161 64t-68 151z" />
<glyph unicode="&#x202f;" horiz-adv-x="306" />
<glyph unicode="&#x205f;" horiz-adv-x="383" />
<glyph unicode="&#x25fc;" horiz-adv-x="1433" d="M0 0v1434h1434v-1434h-1434z" />
</font>
</defs>
</svg>
